# xmcd
#
# Track frame offsets: 
#        150
#        19992
#        35252
#        56640
#        75816
#        111537
#        132527
#        147211
#        170047
#        189544
#        222197
#        248340
#
# Disc length: 3537 seconds
#
# Revision: 0
# Processed by: cddbd v1.5.2PL0 Copyright (c) Steve Scherf et al.
# Submitted via: ExactAudioCopy v0.95b3
#
DISCID=a50dcf0c
DTITLE=The Doors  - Perception Box Set - Disc 6
DYEAR=1900
DGENRE=
TTITLE0=The Changeling
TTITLE1=Love Her Madly
TTITLE2=Been Down So Long
TTITLE3=Cars Hiss By My Window
TTITLE4=L A Woman
TTITLE5=L America
TTITLE6=Hyacinth House
TTITLE7=Crawling King Snake
TTITLE8=The Wasp (Texas Radio And The Big Beat)
TTITLE9=Riders Of The Storm
TTITLE10=Orange County Suite (Bonus Track)
TTITLE11=(You Need Meat) Dont Go No Further (Bonus Track)
EXTD=
EXTT0=
EXTT1=
EXTT2=
EXTT3=
EXTT4=
EXTT5=
EXTT6=
EXTT7=
EXTT8=
EXTT9=
EXTT10=
EXTT11=
PLAYORDER=
